ply
format ascii 1.0
comment File exported by Rhinoceros Version 7.0
element vertex 272
property float x
property float y
property float z
property float nx
property float ny
property float nz
property uchar red
property uchar green
property uchar blue
element face 240
property list uchar uint vertex_indices
element material 1
property uchar ambient_red
property uchar ambient_green
property uchar ambient_blue
property uchar ambient_alpha
property uchar diffuse_red
property uchar diffuse_green
property uchar diffuse_blue
property uchar diffuse_alpha
property uchar emissive_red
property uchar emissive_green
property uchar emissive_blue
property uchar emissive_alpha
property uchar specular_red
property uchar specular_green
property uchar specular_blue
property uchar specular_alpha
property double shine
property double transparency
end_header
-2.65584182739258 -0.113154485821724 -17.6859378814697 -0.9999856 -1.406173E-07 0.005372132 250 250 250
-2.37194347381592 -1.55168104171753 -17.6859188079834 -0.9250128 -0.3799058 0.004793337 250 250 250
-1.51877295970917 -2.8183479309082 -17.6857891082764 -0.699701 -0.7144302 0.002835297 250 250 250
-0.245550632476807 -3.64070010185242 -17.685567855835 -0.3634495 -0.9316139 -0.0001628557 250 250 250
1.13064670562744 -3.89964318275452 -17.6853122711182 6.562555E-07 -0.999994 -0.003447801 250 250 250
2.56917333602905 -3.61574459075928 -17.6850318908691 0.3799025 -0.9250007 -0.006919974 250 250 250
3.83584022521973 -2.76257419586182 -17.6847686767578 0.7143985 -0.6996674 -0.01001898 250 250 250
4.65819215774536 -1.48935186862946 -17.6845798492432 0.9315463 -0.3634219 -0.01208106 250 250 250
4.91713523864746 -0.113154485821724 -17.6844959259033 0.9999181 3.283666E-07 -0.01279904 250 250 250
4.6332368850708 1.32537198066711 -17.684513092041 0.9249544 0.3798815 -0.01221992 250 250 250
3.78006649017334 2.59203910827637 -17.6846446990967 0.6996676 0.7143948 -0.0102638 250 250 250
2.50684404373169 3.414391040802 -17.6848659515381 0.3634411 0.9315888 -0.007268668 250 250 250
1.13064670562744 3.6733341217041 -17.6851215362549 7.58672E-07 0.9999921 -0.003985871 250 250 250
-0.307879775762558 3.38943576812744 -17.6854019165039 -0.3799103 0.9250232 -0.0005140231 250 250 250
-1.57454669475555 2.5362651348114 -17.6856651306152 -0.7144312 0.699701 0.002586913 250 250 250
-2.39689874649048 1.26304292678833 -17.6858539581299 -0.931604 0.3634452 0.004652008 250 250 250
-2.65584182739258 -0.113154485821724 -17.6859378814697 -0.9999856 -1.406173E-07 0.005372132 250 250 250
-2.67456889152527 -0.11436240375042 -25.7285556793213 -0.9999916 -0.00397909 -0.0009869109 250 250 250
-2.38609147071838 -1.54607748985291 -25.7283229827881 -0.9235014 -0.3835871 -0.002453698 250 250 250
-1.53127348423004 -2.80435609817505 -25.728199005127 -0.6968509 -0.7172073 -0.003554551 250 250 250
-0.259824812412262 -3.61841154098511 -25.7282123565674 -0.3597371 -0.933045 -0.00404185 250 250 250
1.1119589805603 -3.8708770275116 -25.728343963623 0.003978352 -0.9999845 -0.003886958 250 250 250
2.54367399215698 -3.58239960670471 -25.7285861968994 0.3835855 -0.9235001 -0.003124948 250 250 250
3.80195283889771 -2.72758150100708 -25.7289123535156 0.7172102 -0.6968545 -0.001801226 250 250 250
4.61600828170776 -1.45613288879395 -25.7292594909668 0.9330527 -0.3597398 -0.0001634049 250 250 250
4.86847352981567 -0.0843491852283478 -25.7295513153076 0.9999911 0.003979167 0.001407706 250 250 250
4.57999610900879 1.34736585617065 -25.7297840118408 0.9235004 0.3835867 0.002874584 250 250 250
3.72517800331116 2.60564470291138 -25.729907989502 0.6968498 0.7172061 0.003975428 250 250 250
2.45372939109802 3.41969990730286 -25.7298946380615 0.3597365 0.9330433 0.004462619 250 250 250
1.0819456577301 3.67216539382935 -25.7297630310059 -0.00397829 0.9999828 0.004307597 250 250 250
-0.349769443273544 3.38368797302246 -25.7295188903809 -0.3835849 0.9234988 0.003545495 250 250 250
-1.6080482006073 2.52886986732483 -25.7291927337646 -0.7172095 0.6968541 0.002221782 250 250 250
-2.42210364341736 1.25742137432098 -25.7288475036621 -0.9330525 0.3597399 0.0005840693 250 250 250
-2.67456889152527 -0.11436240375042 -25.7285556793213 -0.9999916 -0.00397909 -0.0009869109 250 250 250
-2.65494966506958 -0.113998144865036 -34.3908386230469 -0.9999318 -0.01146384 -0.002214569 250 250 250
-2.35523319244385 -1.54604840278625 -34.3908309936523 -0.9206049 -0.3904889 -0.002253563 250 250 250
-1.48948848247528 -2.80011296272278 -34.3907661437988 -0.6914662 -0.7224064 -0.001874005 250 250 250
-0.209717109799385 -3.60605502128601 -34.3906669616699 -0.3527454 -0.9357187 -0.001134019 250 250 250
1.16635346412659 -3.84867477416992 -34.390552520752 0.01146391 -0.9999343 -0.0002317756 250 250 250
2.59840369224548 -3.54895830154419 -34.3904266357422 0.3904896 -0.920607 0.0008015618 250 250 250
3.85246825218201 -2.68321347236633 -34.390308380127 0.7224064 -0.6914664 0.001809652 250 250 250
4.65841007232666 -1.40344202518463 -34.3902282714844 0.9357161 -0.3527446 0.002581258 250 250 250
4.90103006362915 -0.0273715555667877 -34.390193939209 0.9999298 0.01146381 0.002982991 250 250 250
4.60131359100342 1.40467870235443 -34.3902053833008 0.920603 0.3904881 0.003022281 250 250 250
3.73556876182556 2.65874314308167 -34.390266418457 0.6914649 0.7224052 0.002642802 250 250 250
2.45579743385315 3.4646852016449 -34.3903656005859 0.3527449 0.9357176 0.001902617 250 250 250
1.07972681522369 3.70730495452881 -34.3904800415039 -0.01146397 0.9999338 0.001000047 250 250 250
-0.352323412895203 3.40758848190308 -34.3906059265137 -0.3904898 0.9206073 -3.358708E-05 250 250 250
-1.60638797283173 2.54184365272522 -34.3907241821289 -0.7224072 0.6914671 -0.001041756 250 250 250
-2.41232991218567 1.26207232475281 -34.3908042907715 -0.9357176 0.3527452 -0.001813162 250 250 250
-2.65494966506958 -0.113998144865036 -34.3908386230469 -0.9999318 -0.01146384 -0.002214569 250 250 250
-2.64219927787781 -0.111487410962582 -42.6788597106934 -0.9999748 -0.007040493 -0.0009379206 250 250 250
-2.34872341156006 -1.54532277584076 -42.6792221069336 -0.9223254 -0.3864139 0.0003925928 250 250 250
-1.48824989795685 -2.80362010002136 -42.6794700622559 -0.6946549 -0.719341 0.001773795 250 250 250
-0.211634457111359 -3.615483045578 -42.6795387268066 -0.3568797 -0.9341457 0.002920504 250 250 250
1.1638035774231 -3.86426949501038 -42.679443359375 0.007040232 -0.9999686 0.003620544 250 250 250
2.5976390838623 -3.57079362869263 -42.6791877746582 0.3864101 -0.9223189 0.003877415 250 250 250
3.85593628883362 -2.71032023429871 -42.6787986755371 0.7193366 -0.6946524 0.003587104 250 250 250
4.66779947280884 -1.43370485305786 -42.6783447265625 0.9341459 -0.3568806 0.002782687 250 250 250
4.91658592224121 -0.058266781270504 -42.6779327392578 0.9999738 0.007040276 0.00169427 250 250 250
4.62310981750488 1.37556862831116 -42.6775665283203 0.9223255 0.3864138 0.0003637952 250 250 250
3.76263642311096 2.63386583328247 -42.6773223876953 0.6946557 0.7193417 -0.001017392 250 250 250
2.48602080345154 3.44572901725769 -42.6772499084473 0.3568804 0.9341476 -0.002164121 250 250 250
1.11058270931244 3.69451522827148 -42.6773452758789 -0.007040342 0.9999711 -0.002864199 250 250 250
-0.323252707719803 3.40103936195374 -42.6776008605957 -0.3864113 0.9223213 -0.003121109 250 250 250
-1.58155000209808 2.54056596755981 -42.6779937744141 -0.7193385 0.6946539 -0.002830813 250 250 250
-2.39341306686401 1.26395058631897 -42.6784439086914 -0.9341477 0.3568811 -0.002026377 250 250 250
-2.64219927787781 -0.111487410962582 -42.6788597106934 -0.9999748 -0.007040493 -0.0009379206 250 250 250
-2.63576722145081 -0.111666969954967 -51.0965919494629 -0.9999986 0.001361849 -0.0009578069 250 250 250
-2.3541796207428 -1.54878520965576 -51.0965919494629 -0.9255396 -0.3786502 0.0006702492 250 250 250
-1.50379610061646 -2.81503248214722 -51.0965347290039 -0.7006744 -0.713478 0.00215452 250 250 250
-0.233280539512634 -3.63809037208557 -51.0964317321777 -0.3647163 -0.9311133 0.003178515 250 250 250
1.14084792137146 -3.89858245849609 -51.0963096618652 -0.001362153 -0.9999927 0.003582709 250 250 250
2.57796621322632 -3.61699461936951 -51.0961723327637 0.3786479 -0.9255346 0.003386593 250 250 250
3.84421348571777 -2.76661133766174 -51.0960388183594 0.7134773 -0.7006738 0.002541087 250 250 250
4.66727161407471 -1.49609577655792 -51.0959358215332 0.9311174 -0.3647177 0.001189905 250 250 250
4.92776346206665 -0.1219672113657 -51.095890045166 0.999999 -0.001361826 -0.0003231876 250 250 250
4.64617586135864 1.31515097618103 -51.095890045166 0.9255381 0.3786496 -0.001951085 250 250 250
3.7957923412323 2.58139824867249 -51.0959434509277 0.7006719 0.7134754 -0.003434859 250 250 250
2.52527666091919 3.40445637702942 -51.0960464477539 0.3647146 0.9311087 -0.004458332 250 250 250
1.1511482000351 3.66494822502136 -51.0961685180664 0.001362265 0.9999872 -0.004862297 250 250 250
-0.285969972610474 3.38336038589478 -51.0963096618652 -0.3786458 0.9255299 -0.004666339 250 250 250
-1.55221736431122 2.53297710418701 -51.0964431762695 -0.7134743 0.700671 -0.003821329 250 250 250
-2.37527537345886 1.26246154308319 -51.0965423583984 -0.9311152 0.3647169 -0.002470671 250 250 250
-2.63576722145081 -0.111666969954967 -51.0965919494629 -0.9999986 0.001361849 -0.0009578069 250 250 250
-2.62820339202881 -0.112575709819794 -59.4500045776367 -0.9999503 0.009954184 0.0004500198 250 250 250
-2.36006450653076 -1.54623019695282 -59.4498138427734 -0.9287583 -0.3706832 0.001410732 250 250 250
-1.52399265766144 -2.8145797252655 -59.4495620727539 -0.7067794 -0.7074313 0.001932663 250 250 250
-0.265713036060333 -3.64514660835266 -59.4493026733398 -0.3727046 -0.9279481 0.001885189 250 250 250
1.10057032108307 -3.91633319854736 -59.4490852355957 -0.009954336 -0.9999496 0.001346478 250 250 250
2.53422474861145 -3.64819431304932 -59.448917388916 0.3706837 -0.9287591 0.0003542639 250 250 250
3.80257415771484 -2.81212258338928 -59.4488296508789 0.7074326 -0.7067801 -0.0009861812 250 250 250
4.633141040802 -1.55384278297424 -59.4488525390625 0.9279472 -0.3727039 -0.002413122 250 250 250
4.90432739257813 -0.187559425830841 -59.4489631652832 0.9999439 -0.009954457 -0.003617247 250 250 250
4.63618850708008 1.24609506130219 -59.4491539001465 0.9287497 0.3706792 -0.004578137 250 250 250
3.80011677742004 2.51444458961487 -59.449405670166 0.706772 0.7074231 -0.005100318 250 250 250
2.54183721542358 3.34501147270203 -59.4496688842773 0.372701 0.9279377 -0.005053005 250 250 250
1.17555379867554 3.61619806289673 -59.4498863220215 0.009954683 0.9999403 -0.004514279 250 250 250
-0.258100599050522 3.34805917739868 -59.4500541687012 -0.3706812 0.9287535 -0.003521888 250 250 250
-1.52645003795624 2.51198744773865 -59.450138092041 -0.7074312 0.7067788 -0.002181192 250 250 250
-2.35701680183411 1.25370764732361 -59.4501152038574 -0.9279497 0.3727047 -0.0007540896 250 250 250
-2.62820339202881 -0.112575709819794 -59.4500045776367 -0.9999503 0.009954184 0.0004500198 250 250 250
-2.66135334968567 -0.107281170785427 -67.8002777099609 -0.9999039 0.01215552 0.006670948 250 250 250
-2.3957040309906 -1.54516398906708 -67.801025390625 -0.9295585 -0.3686317 0.005626055 250 250 250
-1.56031584739685 -2.81857800483704 -67.8017349243164 -0.7083314 -0.7058679 0.004123819 250 250 250
-0.300681233406067 -3.65403246879578 -67.8022613525391 -0.3747484 -0.9271233 0.002454348 250 250 250
1.06846749782562 -3.92892718315125 -67.8025207519531 -0.01215896 -0.9999256 0.0009873791 250 250 250
2.50635051727295 -3.66327786445618 -67.8025054931641 0.3686349 -0.9295743 -0.0002490863 250 250 250
3.77976489067078 -2.82788968086243 -67.8021926879883 0.7058725 -0.7083382 -0.001015081 250 250 250
4.6152195930481 -1.56825518608093 -67.801628112793 0.9271254 -0.3747496 -0.001127588 250 250 250
4.89011478424072 -0.199106678366661 -67.8009567260742 0.9999259 -0.01215883 -0.0006412015 250 250 250
4.62446546554565 1.23877608776093 -67.8002090454102 0.9295743 0.3686347 0.0004027011 250 250 250
3.78907704353333 2.51219010353088 -67.7994995117188 0.708338 0.7058709 0.001904555 250 250 250
2.52944254875183 3.3476448059082 -67.7989654541016 0.3747486 0.9271196 0.003574529 250 250 250
1.16029369831085 3.62253928184509 -67.798713684082 0.01215936 0.9999133 0.005042482 250 250 250
-0.277589350938797 3.35688996315002 -67.7987289428711 -0.3686282 0.9295557 0.006279937 250 250 250
-1.5510036945343 2.52150177955627 -67.7990417480469 -0.7058566 0.7083197 0.007046316 250 250 250
-2.38645839691162 1.26186740398407 -67.7996063232422 -0.9271032 0.3747378 0.00715832 250 250 250
-2.66135334968567 -0.107281170785427 -67.8002777099609 -0.9999039 0.01215552 0.006670948 250 250 250
-2.70753240585327 -0.101879045367241 -75.8789291381836 -0.9999728 0.006413179 0.003645278 250 250 250
-2.4329788684845 -1.54162049293518 -75.8799438476563 -0.9274397 -0.3739686 0.001761497 250 250 250
-1.58829057216644 -2.81322550773621 -75.8809204101563 -0.7042727 -0.7099291 -0.0007389238 250 250 250
-0.320877909660339 -3.64339661598206 -75.8816528320313 -0.3694179 -0.9292573 -0.003366066 250 250 250
1.05307972431183 -3.91105628013611 -75.8820190429688 -0.00641624 -0.999964 -0.005554134 250 250 250
2.49282169342041 -3.63650250434875 -75.8820343017578 0.3739589 -0.9274168 -0.00726742 250 250 250
3.76442718505859 -2.79181432723999 -75.8816299438477 0.7099081 -0.7042472 -0.008151606 250 250 250
4.59459829330444 -1.52440190315247 -75.8808822631836 0.929235 -0.3694029 -0.007980967 250 250 250
4.86225843429565 -0.150444492697716 -75.8799896240234 0.9999555 -0.006410852 -0.00691771 250 250 250
4.5877046585083 1.28929698467255 -75.8789749145508 0.9274285 0.3739665 -0.005032825 250 250 250
3.74301648139954 2.56090211868286 -75.8779983520508 0.7042693 0.7099283 -0.002532064 250 250 250
2.47560381889343 3.39107298851013 -75.8772659301758 0.3694188 0.929263 9.439625E-05 250 250 250
1.10164618492126 3.65873265266418 -75.8768920898438 0.006415864 0.9999768 0.002281289 250 250 250
-0.338095664978027 3.38417911529541 -75.8768844604492 -0.3739654 0.927434 0.003993471 250 250 250
-1.60970115661621 2.53949093818665 -75.8772888183594 -0.7099223 0.7042631 0.004877317 250 250 250
-2.43987250328064 1.27207839488983 -75.8780364990234 -0.9292536 0.3694124 0.004707359 250 250 250
-2.70753240585327 -0.101879045367241 -75.8789291381836 -0.9999728 0.006413179 0.003645278 250 250 250
-2.72357559204102 -0.102298878133297 -84.508430480957 -0.9999998 -8.320016E-06 0.0005748605 250 250 250
-2.4410707950592 -1.53370118141174 -84.5083923339844 -0.9250201 -0.3799181 0.000165279 250 250 250
-1.59211373329163 -2.79409003257751 -84.5082778930664 -0.6996976 -0.714439 -0.0004193982 250 250 250
-0.325188159942627 -3.61236023902893 -84.5081024169922 -0.3634414 -0.9316164 -0.001066146 250 250 250
1.04419803619385 -3.87001013755798 -84.5079193115234 8.514582E-06 -0.9999987 -0.001631993 250 250 250
2.47560024261475 -3.58750534057617 -84.5077209472656 0.3799175 -0.925018 -0.002106157 250 250 250
3.73598909378052 -2.73854827880859 -84.5075531005859 0.7144372 -0.6996955 -0.002396047 250 250 250
4.55425930023193 -1.47162258625031 -84.507438659668 0.9316142 -0.3634405 -0.002432055 250 250 250
4.81190919876099 -0.102236390113831 -84.5074005126953 0.9999975 8.320276E-06 -0.002237067 250 250 250
4.5294041633606 1.32916593551636 -84.507438659668 0.9250186 0.3799174 -0.001827355 250 250 250
3.68044710159302 2.58955478668213 -84.5075531005859 0.6996972 0.7144384 -0.001242677 250 250 250
2.41352152824402 3.40782499313354 -84.5077285766602 0.3634418 0.9316167 -0.000596065 250 250 250
1.04413533210754 3.6654748916626 -84.5079193115234 -8.287509E-06 1 -3.039093E-05 250 250 250
-0.387266874313354 3.38297009468079 -84.5081100463867 -0.3799181 0.92502 0.0004436426 250 250 250
-1.64765572547913 2.53401303291321 -84.5082855224609 -0.7144389 0.6996974 0.0007335325 250 250 250
-2.46592593193054 1.26708734035492 -84.5083999633789 -0.9316167 0.3634416 0.0007696754 250 250 250
-2.72357559204102 -0.102298878133297 -84.508430480957 -0.9999998 -8.320016E-06 0.0005748605 250 250 250
-2.7234001159668 -0.102863058447838 -92.8285140991211 -0.9999999 0.0002823887 -0.000363856 250 250 250
-2.44124341011047 -1.53469169139862 -92.8284149169922 -0.9251305 -0.3796492 -0.000206858 250 250 250
-1.59244883060455 -2.79563045501709 -92.8283615112305 -0.6999053 -0.7142356 4.32606E-05 250 250 250
-0.325456529855728 -3.61446571350098 -92.8283615112305 -0.3637125 -0.9315112 0.0003390435 250 250 250
1.04418396949768 -3.8725757598877 -92.8284149169922 -0.0002823895 -0.9999998 0.0006130437 250 250 250
2.47601270675659 -3.59041929244995 -92.8285064697266 0.3796491 -0.9251302 0.0008592248 250 250 250
3.73695135116577 -2.74162459373474 -92.8286437988281 0.7142353 -0.6999049 0.001032258 250 250 250
4.55578660964966 -1.47463226318359 -92.8287811279297 0.9315107 -0.3637123 0.001092455 250 250 250
4.81389665603638 -0.104991748929024 -92.8289031982422 0.9999994 -0.000282336 0.00104072 250 250 250
4.53174018859863 1.32683682441711 -92.8289947509766 0.9251302 0.379649 0.0008838047 250 250 250
3.68294548988342 2.58777570724487 -92.8290481567383 0.6999052 0.7142355 0.000633763 250 250 250
2.41595315933228 3.40661096572876 -92.8290481567383 0.3637126 0.9315112 0.0003380006 250 250 250
1.04631268978119 3.66472101211548 -92.8290023803711 0.0002824242 0.9999999 6.395831E-05 250 250 250
-0.38551589846611 3.38256430625916 -92.8289031982422 -0.3796492 0.9251305 -0.0001823052 250 250 250
-1.6464546918869 2.53376984596252 -92.8287734985352 -0.7142356 0.6999053 -0.0003554152 250 250 250
-2.46529006958008 1.26677751541138 -92.8286361694336 -0.9315112 0.3637125 -0.0004156327 250 250 250
-2.7234001159668 -0.102863058447838 -92.8285140991211 -0.9999999 0.0002823887 -0.000363856 250 250 250
-2.71795511245728 -0.102423615753651 -101.211799621582 -0.9999993 8.378301E-05 -0.001130519 250 250 250
-2.43543529510498 -1.53459584712982 -101.211936950684 -0.9250546 -0.3798326 -0.001077049 250 250 250
-1.58615303039551 -2.79571795463562 -101.212226867676 -0.6997633 -0.7143743 -0.0008205443 250 250 250
-0.318644344806671 -3.61453032493591 -101.212615966797 -0.3635276 -0.9315833 -0.0004042892 250 250 250
1.05142986774445 -3.87244009971619 -101.213012695313 -8.370159E-05 -1 6.536032E-05 250 250 250
2.48360204696655 -3.58992004394531 -101.213401794434 0.379833 -0.9250548 0.0005736528 250 250 250
3.74472427368164 -2.74063777923584 -101.213729858398 0.7143744 -0.6997629 0.00104013 250 250 250
4.56353664398193 -1.47312903404236 -101.213905334473 0.9315826 -0.3635271 0.001365548 250 250 250
4.82144641876221 -0.103054814040661 -101.213928222656 0.9999989 -8.379751E-05 0.001498625 250 250 250
4.53892660140991 1.32911741733551 -101.213790893555 0.9250542 0.3798324 0.001445221 250 250 250
3.68964409828186 2.59023952484131 -101.213500976563 0.6997631 0.7143739 0.001188797 250 250 250
2.42213535308838 3.4090518951416 -101.213111877441 0.3635276 0.9315831 0.0007725849 250 250 250
1.05206120014191 3.66696166992188 -101.212715148926 8.380526E-05 0.9999999 0.0003029179 250 250 250
-0.380111038684845 3.384441614151 -101.212326049805 -0.379833 0.925055 -0.0002054413 250 250 250
-1.64123320579529 2.53515934944153 -101.212005615234 -0.7143746 0.6997632 -0.0006719995 250 250 250
-2.460045337677 1.26765060424805 -101.211822509766 -0.931583 0.3635272 -0.0009974599 250 250 250
-2.71795511245728 -0.102423615753651 -101.211799621582 -0.9999993 8.378301E-05 -0.001130519 250 250 250
-2.70548486709595 -0.101744659245014 -109.565353393555 -0.9999979 0.001698388 -0.001171758 250 250 250
-2.4250316619873 -1.53562879562378 -109.565528869629 -0.9256671 -0.3783388 -0.0004521323 250 250 250
-1.57704305648804 -2.79922866821289 -109.565803527832 -0.7009158 -0.7132439 0.0004012492 250 250 250
-0.309746533632278 -3.62080669403076 -109.566108703613 -0.3650306 -0.9309947 0.001217355 250 250 250
1.06111180782318 -3.88115668296814 -109.566390991211 -0.001697935 -0.9999969 0.001829659 250 250 250
2.49499583244324 -3.6007034778595 -109.566635131836 0.3783383 -0.9256647 0.002232142 250 250 250
3.75859570503235 -2.75271487236023 -109.566795349121 0.7132421 -0.7009138 0.002328121 250 250 250
4.5801739692688 -1.48541820049286 -109.566841125488 0.9309933 -0.3650303 0.002082223 250 250 250
4.8405237197876 -0.114559918642044 -109.566764831543 0.9999973 -0.001698424 0.001586903 250 250 250
4.56007051467896 1.31932413578033 -109.566589355469 0.9256669 0.3783386 0.0008670937 250 250 250
3.71208190917969 2.58292412757874 -109.56632232666 0.7009159 0.7132439 1.354959E-05 250 250 250
2.44478535652161 3.40450215339661 -109.566009521484 0.3650309 0.9309951 -0.0008025892 250 250 250
1.07392704486847 3.66485214233398 -109.565727233887 0.001698014 0.9999976 -0.001414792 250 250 250
-0.359956979751587 3.38439893722534 -109.565483093262 -0.3783385 0.9256655 -0.001817091 250 250 250
-1.6235568523407 2.5364100933075 -109.565322875977 -0.7132427 0.7009145 -0.001912907 250 250 250
-2.44513487815857 1.2691136598587 -109.565284729004 -0.930994 0.3650306 -0.001666975 250 250 250
-2.70548486709595 -0.101744659245014 -109.565353393555 -0.9999979 0.001698388 -0.001171758 250 250 250
-2.70750832557678 -0.102608181536198 -117.920120239258 -0.9999725 0.007344462 0.001055125 250 250 250
-2.43559074401855 -1.53575837612152 -117.919990539551 -0.9277868 -0.3731056 0.001966991 250 250 250
-1.59609401226044 -2.80209851264954 -117.91983795166 -0.7049299 -0.709273 0.002358924 250 250 250
-0.335474699735641 -3.62949419021606 -117.919700622559 -0.3702811 -0.9289173 0.002123172 250 250 250
1.03170299530029 -3.89715147018433 -117.919609069824 -0.007344437 -0.999972 0.001384238 250 250 250
2.46485328674316 -3.62523412704468 -117.919555664063 0.3731064 -0.9277885 0.0001856117 250 250 250
3.73119354248047 -2.78573727607727 -117.919555664063 0.7092745 -0.7049312 -0.001333358 250 250 250
4.55858898162842 -1.5251179933548 -117.919609069824 0.9289156 -0.3702804 -0.002872208 250 250 250
4.82624626159668 -0.157940343022346 -117.919708251953 0.9999646 -0.007344653 -0.004106059 250 250 250
4.55432891845703 1.27520990371704 -117.91983795166 0.9277771 0.3731013 -0.005017699 250 250 250
3.7148323059082 2.54155015945435 -117.919990539551 0.7049218 0.7092644 -0.005409244 250 250 250
2.45421290397644 3.36894583702087 -117.920127868652 0.3702772 0.9289069 -0.005173192 250 250 250
1.08703529834747 3.63660311698914 -117.920219421387 0.007344539 0.9999632 -0.004434216 250 250 250
-0.34611502289772 3.36468553543091 -117.920272827148 -0.3731045 0.9277837 -0.003235816 250 250 250
-1.6124552488327 2.52518892288208 -117.920272827148 -0.7092741 0.7049307 -0.001717233 250 250 250
-2.43985104560852 1.26456952095032 -117.920219421387 -0.9289194 0.3702818 -0.0001786849 250 250 250
-2.70750832557678 -0.102608181536198 -117.920120239258 -0.9999725 0.007344462 0.001055125 250 250 250
-2.70372533798218 -0.104355797171593 -126.028388977051 -0.9999584 0.00875173 -0.002562581 250 250 250
-2.43471693992615 -1.53315544128418 -126.028114318848 -0.9283083 -0.3717985 -0.003101826 250 250 250
-1.59976923465729 -2.79649233818054 -126.027923583984 -0.7059256 -0.7082781 -0.003356764 250 250 250
-0.344473421573639 -3.62292504310608 -126.027870178223 -0.3715874 -0.9283922 -0.003260089 250 250 250
1.0178142786026 -3.89161729812622 -126.027938842773 -0.008752542 -0.9999576 -0.002874234 250 250 250
2.44661402702332 -3.62260890007019 -126.028129577637 0.3717985 -0.9283108 -0.002223268 250 250 250
3.70995092391968 -2.78766107559204 -126.028427124023 0.708281 -0.7059293 -0.001380757 250 250 250
4.53638362884521 -1.53236544132233 -126.028770446777 0.9283971 -0.3715894 -0.0005125814 250 250 250
4.80507564544678 -0.170077696442604 -126.029083251953 0.9999617 -0.008752259 0.0001963488 250 250 250
4.53606700897217 1.25872194766998 -126.029357910156 0.9283127 0.3717998 0.0007354437 250 250 250
3.70111966133118 2.52205896377563 -126.029541015625 0.7059293 0.7082816 0.0009905201 250 250 250
2.44582390785217 3.34849166870117 -126.029602050781 0.3715892 0.9283968 0.0008941959 250 250 250
1.08353614807129 3.61718368530273 -126.029525756836 0.008752359 0.9999616 0.0005086666 250 250 250
-0.345263570547104 3.3481752872467 -126.029335021973 -0.3717998 0.9283129 -0.000142149 250 250 250
-1.60860049724579 2.51322770118713 -126.02904510498 -0.7082817 0.7059292 -0.0009847987 250 250 250
-2.43503308296204 1.25793194770813 -126.028701782227 -0.9283957 0.3715883 -0.001853325 250 250 250
-2.70372533798218 -0.104355797171593 -126.028388977051 -0.9999584 0.00875173 -0.002562581 250 250 250
-2.67389702796936 -0.105376780033112 -134.623001098633 -0.9999915 0.002089441 -0.00355645 250 250 250
-2.39550828933716 -1.53167140483856 -134.622940063477 -0.9258066 -0.3779726 -0.004338505 250 250 250
-1.55256485939026 -2.7888171672821 -134.623153686523 -0.7011894 -0.7129621 -0.00429891 250 250 250
-0.292392671108246 -3.60647797584534 -134.623580932617 -0.3653947 -0.9308465 -0.003404804 250 250 250
1.0710037946701 -3.86596393585205 -134.624130249023 -0.002090773 -0.9999959 -0.001945829 250 250 250
2.49729824066162 -3.58757519721985 -134.624771118164 0.3779764 -0.9258152 1.290616E-05 250 250 250
3.75444412231445 -2.74463176727295 -134.625411987305 0.7129683 -0.7011928 0.002209359 250 250 250
4.57210445404053 -1.48445951938629 -134.625915527344 0.9308445 -0.3653914 0.004197895 250 250 250
4.83159065246582 -0.121062912046909 -134.626190185547 0.9999822 -0.002089173 0.005586754 250 250 250
4.55320167541504 1.3052316904068 -134.626251220703 0.9257966 0.3779684 0.006368974 250 250 250
3.71025824546814 2.56237745285034 -134.626037597656 0.7011821 0.7129541 0.006329491 250 250 250
2.45008611679077 3.38003826141357 -134.625610351563 0.3653921 0.9308378 0.005435365 250 250 250
1.08668947219849 3.63952422142029 -134.625061035156 0.002091624 0.9999899 0.003976266 250 250 250
-0.339605003595352 3.36113548278809 -134.624420166016 -0.3779748 0.9258137 0.002017366 250 250 250
-1.59675073623657 2.51819205284119 -134.623779296875 -0.7129694 0.7011951 -0.0001791983 250 250 250
-2.41441106796265 1.25801980495453 -134.623275756836 -0.9308503 0.3653943 -0.002167715 250 250 250
-2.67389702796936 -0.105376780033112 -134.623001098633 -0.9999915 0.002089441 -0.00355645 250 250 250
-2.64378380775452 -0.105233088135719 -142.977828979492 -0.9999813 -0.00467275 -0.003951192 250 250 250
-2.35433554649353 -1.5366370677948 -142.977813720703 -0.9232276 -0.3842244 -0.004731331 250 250 250
-1.49871075153351 -2.79422521591187 -142.977828979492 -0.6963513 -0.7176884 -0.004258639 250 250 250
-0.226795896887779 -3.60733532905579 -142.977844238281 -0.3590912 -0.9332989 -0.002568605 250 250 250
1.14505660533905 -3.85882949829102 -142.977874755859 0.004672729 -0.9999891 -0.0001607034 250 250 250
2.57646059989929 -3.56938099861145 -142.977920532227 0.3842272 -0.9232341 0.002868243 250 250 250
3.83404874801636 -2.71375632286072 -142.977966308594 0.7176818 -0.6963446 0.006092217 250 250 250
4.64715909957886 -1.44184148311615 -142.978012084961 0.9332656 -0.3590781 0.008849122 250 250 250
4.89865303039551 -0.0699889063835144 -142.97802734375 0.9999327 0.004672611 0.01061691 250 250 250
4.60920476913452 1.36141502857208 -142.978042602539 0.923178 0.3842037 0.01139743 250 250 250
3.75357985496521 2.61900329589844 -142.978042602539 0.6963161 0.7176521 0.01092378 250 250 250
2.48166513442993 3.43211340904236 -142.978012084961 0.3590772 0.9332622 0.009232013 250 250 250
1.10981249809265 3.68360757827759 -142.977981567383 -0.004672444 0.9999658 0.006822741 250 250 250
-0.321591466665268 3.39415907859802 -142.977935791016 -0.3842258 0.9232314 0.00379341 250 250 250
-1.57917964458466 2.53853440284729 -142.977890014648 -0.7176949 0.6963575 0.0005703951 250 250 250
-2.39228963851929 1.26661944389343 -142.97785949707 -0.9332998 0.3590914 -0.002184773 250 250 250
-2.64378380775452 -0.105233088135719 -142.977828979492 -0.9999813 -0.00467275 -0.003951192 250 250 250
4 18 1 0 17
4 19 2 1 18
4 20 3 2 19
4 21 4 3 20
4 22 5 4 21
4 23 6 5 22
4 24 7 6 23
4 25 8 7 24
4 26 9 8 25
4 27 10 9 26
4 28 11 10 27
4 29 12 11 28
4 30 13 12 29
4 31 14 13 30
4 32 15 14 31
4 33 16 15 32
4 35 18 17 34
4 36 19 18 35
4 37 20 19 36
4 38 21 20 37
4 39 22 21 38
4 40 23 22 39
4 41 24 23 40
4 42 25 24 41
4 43 26 25 42
4 44 27 26 43
4 45 28 27 44
4 46 29 28 45
4 47 30 29 46
4 48 31 30 47
4 49 32 31 48
4 50 33 32 49
4 52 35 34 51
4 53 36 35 52
4 54 37 36 53
4 55 38 37 54
4 56 39 38 55
4 57 40 39 56
4 58 41 40 57
4 59 42 41 58
4 60 43 42 59
4 61 44 43 60
4 62 45 44 61
4 63 46 45 62
4 64 47 46 63
4 65 48 47 64
4 66 49 48 65
4 67 50 49 66
4 69 52 51 68
4 70 53 52 69
4 71 54 53 70
4 72 55 54 71
4 73 56 55 72
4 74 57 56 73
4 75 58 57 74
4 76 59 58 75
4 77 60 59 76
4 78 61 60 77
4 79 62 61 78
4 80 63 62 79
4 81 64 63 80
4 82 65 64 81
4 83 66 65 82
4 84 67 66 83
4 86 69 68 85
4 87 70 69 86
4 88 71 70 87
4 89 72 71 88
4 90 73 72 89
4 91 74 73 90
4 92 75 74 91
4 93 76 75 92
4 94 77 76 93
4 95 78 77 94
4 96 79 78 95
4 97 80 79 96
4 98 81 80 97
4 99 82 81 98
4 100 83 82 99
4 101 84 83 100
4 103 86 85 102
4 104 87 86 103
4 105 88 87 104
4 106 89 88 105
4 107 90 89 106
4 108 91 90 107
4 109 92 91 108
4 110 93 92 109
4 111 94 93 110
4 112 95 94 111
4 113 96 95 112
4 114 97 96 113
4 115 98 97 114
4 116 99 98 115
4 117 100 99 116
4 118 101 100 117
4 120 103 102 119
4 121 104 103 120
4 122 105 104 121
4 123 106 105 122
4 124 107 106 123
4 125 108 107 124
4 126 109 108 125
4 127 110 109 126
4 128 111 110 127
4 129 112 111 128
4 130 113 112 129
4 131 114 113 130
4 132 115 114 131
4 133 116 115 132
4 134 117 116 133
4 135 118 117 134
4 137 120 119 136
4 138 121 120 137
4 139 122 121 138
4 140 123 122 139
4 141 124 123 140
4 142 125 124 141
4 143 126 125 142
4 144 127 126 143
4 145 128 127 144
4 146 129 128 145
4 147 130 129 146
4 148 131 130 147
4 149 132 131 148
4 150 133 132 149
4 151 134 133 150
4 152 135 134 151
4 154 137 136 153
4 155 138 137 154
4 156 139 138 155
4 157 140 139 156
4 158 141 140 157
4 159 142 141 158
4 160 143 142 159
4 161 144 143 160
4 162 145 144 161
4 163 146 145 162
4 164 147 146 163
4 165 148 147 164
4 166 149 148 165
4 167 150 149 166
4 168 151 150 167
4 169 152 151 168
4 171 154 153 170
4 172 155 154 171
4 173 156 155 172
4 174 157 156 173
4 175 158 157 174
4 176 159 158 175
4 177 160 159 176
4 178 161 160 177
4 179 162 161 178
4 180 163 162 179
4 181 164 163 180
4 182 165 164 181
4 183 166 165 182
4 184 167 166 183
4 185 168 167 184
4 186 169 168 185
4 188 171 170 187
4 189 172 171 188
4 190 173 172 189
4 191 174 173 190
4 192 175 174 191
4 193 176 175 192
4 194 177 176 193
4 195 178 177 194
4 196 179 178 195
4 197 180 179 196
4 198 181 180 197
4 199 182 181 198
4 200 183 182 199
4 201 184 183 200
4 202 185 184 201
4 203 186 185 202
4 205 188 187 204
4 206 189 188 205
4 207 190 189 206
4 208 191 190 207
4 209 192 191 208
4 210 193 192 209
4 211 194 193 210
4 212 195 194 211
4 213 196 195 212
4 214 197 196 213
4 215 198 197 214
4 216 199 198 215
4 217 200 199 216
4 218 201 200 217
4 219 202 201 218
4 220 203 202 219
4 222 205 204 221
4 223 206 205 222
4 224 207 206 223
4 225 208 207 224
4 226 209 208 225
4 227 210 209 226
4 228 211 210 227
4 229 212 211 228
4 230 213 212 229
4 231 214 213 230
4 232 215 214 231
4 233 216 215 232
4 234 217 216 233
4 235 218 217 234
4 236 219 218 235
4 237 220 219 236
4 239 222 221 238
4 240 223 222 239
4 241 224 223 240
4 242 225 224 241
4 243 226 225 242
4 244 227 226 243
4 245 228 227 244
4 246 229 228 245
4 247 230 229 246
4 248 231 230 247
4 249 232 231 248
4 250 233 232 249
4 251 234 233 250
4 252 235 234 251
4 253 236 235 252
4 254 237 236 253
4 256 239 238 255
4 257 240 239 256
4 258 241 240 257
4 259 242 241 258
4 260 243 242 259
4 261 244 243 260
4 262 245 244 261
4 263 246 245 262
4 264 247 246 263
4 265 248 247 264
4 266 249 248 265
4 267 250 249 266
4 268 251 250 267
4 269 252 251 268
4 270 253 252 269
4 271 254 253 270
0 0 0 255 250 250 250 255 0 0 0 255 255 255 255 255 0 0
